<svg viewBox="0 0 120 120" xml:space="preserve" xmlns="http://www.w3.org/2000/svg"><path d="M96.102 36.156c0-6.524-5.308-11.833-11.833-11.833a11.756 11.756 0 0 0-10.471 6.323 34.588 34.588 0 0 0-13.43-2.709 34.751 34.751 0 0 0-14.052 2.948c-1.969-3.951-6.039-6.561-10.586-6.561-6.524 0-11.833 5.308-11.833 11.833a11.8 11.8 0 0 0 6.021 10.303 30.582 30.582 0 0 0-3.141 13.499c0 17.656 15.068 32.021 33.59 32.021 15.878 0 29.716-10.746 32.903-25.55a2 2 0 1 0-3.91-.842c-1.235 5.737-4.313 10.774-8.568 14.613-2-8.601-10.634-15.034-20.792-15.034-9.947 0-18.424 6.159-20.657 14.484-5.291-5.065-8.564-12.023-8.564-19.693 0-15.451 13.274-28.021 29.59-28.021 15.326 0 28.282 11.318 29.496 25.767a2.001 2.001 0 0 0 3.987-.335 30.397 30.397 0 0 0-3.214-11.243 11.767 11.767 0 0 0 5.464-9.97zM60 69.167c9.033 0 16.589 6.062 17.208 13.801a30.672 30.672 0 0 1-16.84 5.011c-6.55 0-12.608-2.029-17.516-5.455.869-7.525 8.285-13.357 17.148-13.357zM31.909 42.979a7.802 7.802 0 0 1-4.011-6.823c0-4.319 3.514-7.833 7.833-7.833a7.837 7.837 0 0 1 7.021 4.386c-4.387 2.587-8.101 6.108-10.843 10.27zm45.492-10.562a7.772 7.772 0 0 1 6.869-4.093c4.319 0 7.833 3.514 7.833 7.833a7.78 7.78 0 0 1-3.511 6.514c-2.85-4.191-6.692-7.708-11.191-10.254z" fill="#4493c4" class="fill-000000"></path><path d="M48.109 54.5a2 2 0 0 0 0 4c3.354 0 6.083-2.729 6.083-6.083s-2.729-6.083-6.083-6.083-6.083 2.729-6.083 6.083a2 2 0 0 0 4 0c0-1.148.935-2.083 2.083-2.083s2.083.935 2.083 2.083-.935 2.083-2.083 2.083zM71.891 54.5a2 2 0 0 0 0 4c3.354 0 6.083-2.729 6.083-6.083s-2.729-6.083-6.083-6.083-6.083 2.729-6.083 6.083a2 2 0 0 0 4 0c0-1.148.935-2.083 2.083-2.083s2.083.935 2.083 2.083-.934 2.083-2.083 2.083zM65.75 76.916a2 2 0 0 0-2-2h-7.5a2 2 0 0 0 0 4h7.5a2 2 0 0 0 2-2zM63.5 82.041a2 2 0 0 0-2-2h-3a2 2 0 0 0 0 4h3a2 2 0 0 0 2-2z" fill="#4493c4" class="fill-000000"></path></svg>