<svg viewBox="0 0 64 64" xml:space="preserve" xmlns="http://www.w3.org/2000/svg" enable-background="new 0 0 64 64"><path d="M-126.5-478.5h-39c-2.3 0-4.2-1.9-4.2-4.2v-25.1c0-2.3 1.9-4.2 4.2-4.2h8.4c.2 0 .7-.3.8-.5l1.5-3.1c.6-1.1 2-2 3.3-2h11.1c1.3 0 2.7.9 3.3 2l1.5 3.1c.1.2.5.5.8.5h8.4c2.3 0 4.2 1.9 4.2 4.2v25.1c-.1 2.3-2 4.2-4.3 4.2zm-39-30.6c-.8 0-1.4.6-1.4 1.4v25.1c0 .8.6 1.4 1.4 1.4h39c.8 0 1.4-.6 1.4-1.4v-25.1c0-.8-.6-1.4-1.4-1.4h-8.4c-1.3 0-2.7-.9-3.3-2l-1.5-3.1c-.1-.2-.5-.5-.8-.5h-11.1c-.2 0-.7.3-.8.5l-1.5 3.1c-.6 1.1-2 2-3.3 2h-8.3z" transform="translate(178 530)" fill="#4493c4" class="fill-134563"></path><path d="M-146-484.1c-6.9 0-12.5-5.6-12.5-12.5s5.6-12.5 12.5-12.5 12.5 5.6 12.5 12.5-5.6 12.5-12.5 12.5zm0-22.3c-5.4 0-9.8 4.4-9.8 9.8s4.4 9.8 9.8 9.8 9.8-4.4 9.8-9.8-4.4-9.8-9.8-9.8zM-130.7-506.4c0 .8-.6 1.4-1.4 1.4s-1.4-.6-1.4-1.4.6-1.4 1.4-1.4 1.4.7 1.4 1.4M-164.1-514.7h5.6v1.4h-5.6z" transform="translate(178 530)" fill="#4493c4" class="fill-134563"></path><path d="M-146-502.2v-1.4c-3.8 0-7 3.1-7 7h1.4c0-3.1 2.5-5.6 5.6-5.6" transform="translate(178 530)" fill="#4493c4" class="fill-134563"></path></svg>