<svg data-name="Layer 1" viewBox="0 0 32 32" xmlns="http://www.w3.org/2000/svg"><path d="M21.5 3h-11A2.5 2.5 0 0 0 8 5.5v21a2.5 2.5 0 0 0 2.5 2.5h11a2.5 2.5 0 0 0 2.5-2.5v-21A2.5 2.5 0 0 0 21.5 3ZM23 26.5a1.5 1.5 0 0 1-1.5 1.5h-11A1.5 1.5 0 0 1 9 26.5v-21A1.5 1.5 0 0 1 10.5 4h11A1.5 1.5 0 0 1 23 5.5v21Z" fill="#4493c4" class="fill-000000"></path><path d="M10 24h12V7H10v17Zm1-16h10v15H11V8Z" fill="#4493c4" class="fill-000000"></path><circle cx="16" cy="26" r="1" fill="#4493c4" class="fill-000000"></circle><path d="M14 5h4v1h-4z" fill="#4493c4" class="fill-000000"></path></svg>