<?xml version="1.0" ?><svg data-name="Capa 1" id="Capa_1" viewBox="0 0 20 19.84" xmlns="http://www.w3.org/2000/svg"><path d="M12,11.13a.28.28,0,0,0-.27-.24h-.06V9.29A.27.27,0,0,0,11.39,9h-.07V6.83s0,0,0,0a1.13,1.13,0,0,0-.05-.4,2.34,2.34,0,0,0-.59-.9c-.63-.63-1.39-.83-1.76-.46a.63.63,0,0,0-.18.49h0V9H8.61a.27.27,0,0,0-.27.26V10.9H8.2a.26.26,0,0,0-.26.23c-.05.5-.08,1-.08,1.49a14.72,14.72,0,0,0,.08,1.49,1,1,0,0,0,.48.74A5.53,5.53,0,0,0,10,15a5.67,5.67,0,0,0,1.56-.16,1,1,0,0,0,.47-.74,12.22,12.22,0,0,0,.07-1.48A12.55,12.55,0,0,0,12,11.13ZM9.25,6.68l.12.14a1.91,1.91,0,0,0,1.27.64l.15,0V9H9.25Zm0-1.25a.16.16,0,0,1,.12,0,1.49,1.49,0,0,1,.9.5c.46.45.55.91.46,1s-.56,0-1-.46a1.49,1.49,0,0,1-.49-.87v0A.19.19,0,0,1,9.28,5.43Zm1.84,4.13v1.23H8.88V9.56Zm.34,4.49a.47.47,0,0,1-.16.32,5.74,5.74,0,0,1-1.34.11,6.14,6.14,0,0,1-1.31-.1.45.45,0,0,1-.18-.33,13.55,13.55,0,0,1-.08-1.43c0-.4,0-.8,0-1.19h3a9.48,9.48,0,0,1,0,1.19A11.32,11.32,0,0,1,11.46,14.05Z"/></svg>