<svg viewBox="0 0 24 24" xml:space="preserve" xmlns="http://www.w3.org/2000/svg"><path d="M19 11v2h-1V6c0-3.3-2.7-6-6-6S6 2.7 6 6v7H5v-2H4v3c0 3.7 2.6 6.8 6 7.7v.3c0 1.1.9 2 2 2s2-.9 2-2v-.3c3.4-.9 6-4 6-7.7v-3h-1zM8 13h1.5c.3 0 .5-.2.5-.5s-.2-.5-.5-.5H8v-2h1.5c.3 0 .5-.2.5-.5S9.8 9 9.5 9H8V7h1.5c.3 0 .5-.2.5-.5S9.8 6 9.5 6H8c0-2.2 1.8-4 4-4s4 1.8 4 4h-1.5c-.3 0-.5.2-.5.5s.2.5.5.5H16v2h-1.5c-.3 0-.5.2-.5.5s.2.5.5.5H16v2h-1.5c-.3 0-.5.2-.5.5s.2.5.5.5H16v1c0 2.2-1.8 4-4 4s-4-1.8-4-4v-1zm6 7.7-1 .3v1c0 .6-.4 1-1 1s-1-.4-1-1v-1l-1-.3c-2.9-.9-5-3.5-5-6.7h1c0 3.3 2.7 6 6 6s6-2.7 6-6h1c0 3.2-2.1 5.8-5 6.7z" fill="#4493c4" class="fill-000000"></path></svg>