<svg viewBox="0 0 128 128" xml:space="preserve" xmlns="http://www.w3.org/2000/svg"><path d="M89.843 64.815a2 2 0 0 1-2-2V33.57c0-5.626-4.577-10.203-10.202-10.203H50.393c-5.624 0-10.2 4.577-10.2 10.203v29.245a2 2 0 0 1-4 0V33.57c0-7.832 6.37-14.203 14.2-14.203h27.248c7.831 0 14.202 6.371 14.202 14.203v29.245a2 2 0 0 1-2 2zM91.843 101.148h-55.65V73.016h55.65v28.132zm-51.651-4h47.65V77.016h-47.65v20.132z" fill="#4493c4" class="fill-000000"></path><path d="M40.192 101.148H25.088V68.137c-6.279-.967-11.104-6.406-11.104-12.951 0-7.226 5.878-13.104 13.104-13.104s13.104 5.879 13.104 13.104v45.962zm-11.104-4h7.104V55.186c0-5.021-4.084-9.104-9.104-9.104s-9.104 4.084-9.104 9.104 4.084 9.103 9.104 9.103h2v32.859zM102.944 101.148H87.843V55.186c0-7.226 5.877-13.104 13.102-13.104s13.103 5.879 13.103 13.104c0 6.545-4.824 11.984-11.103 12.951v33.011zm-11.101-4h7.102v-32.86h2c5.02 0 9.103-4.083 9.103-9.103 0-5.021-4.083-9.104-9.103-9.104-5.019 0-9.102 4.084-9.102 9.104v41.963z" fill="#4493c4" class="fill-000000"></path><path d="M38.192 107.238a2 2 0 0 1-2-2v-4.404a2 2 0 0 1 4 0v4.404a2 2 0 0 1-2 2zM89.843 107.238a2 2 0 0 1-2-2v-4.404a2 2 0 0 1 4 0v4.404a2 2 0 0 1-2 2z" fill="#4493c4" class="fill-000000"></path></svg>