<svg viewBox="0 0 24 24" xml:space="preserve" xmlns="http://www.w3.org/2000/svg"><path d="M23 0H1C.4 0 0 .4 0 1v22c0 .6.4 1 1 1h22c.6 0 1-.4 1-1V1c0-.6-.4-1-1-1zm-1 22H2V7h20v15zm0-16H2V2h20v4z" fill="#4493c4" class="fill-000000"></path><circle cx="6" cy="4" r="1" fill="#4493c4" class="fill-000000"></circle><circle cx="10" cy="4" r="1" fill="#4493c4" class="fill-000000"></circle><circle cx="14" cy="4" r="1" fill="#4493c4" class="fill-000000"></circle><circle cx="18" cy="4" r="1" fill="#4493c4" class="fill-000000"></circle><path d="M21 8H3v13h18V8zm-1 12H4V9h16v11z" fill="#4493c4" class="fill-000000"></path><path d="M9 10h6v1H9z" fill="#4493c4" class="fill-000000"></path></svg>