<svg data-name="Layer 1" viewBox="0 0 32 32" xmlns="http://www.w3.org/2000/svg"><path d="M31 11.44A6.49 6.49 0 0 0 19.82 7h-7.64A6.49 6.49 0 0 0 1 11.44a84.11 84.11 0 0 0-1 12.09c0 2.42 1 4 2.92 4.36A5.41 5.41 0 0 0 4 28a3.9 3.9 0 0 0 3.82-2.82c.39-1.1 1.09-2.62 1.52-3.54A4 4 0 0 0 14.87 19h2.26a4 4 0 0 0 5.52 2.64c.43.91 1.13 2.43 1.52 3.54A3.9 3.9 0 0 0 28 28a5.4 5.4 0 0 0 1.09-.11C31 27.5 32 25.95 32 23.53a84.11 84.11 0 0 0-1-12.09ZM6.89 24.85a3 3 0 0 1-3.77 2.06C1.37 26.54 1 24.87 1 23.53a78.9 78.9 0 0 1 .62-9.28A6.52 6.52 0 0 0 7 18a4 4 0 0 0 1.5 3.11c-.5 1.02-1.2 2.57-1.61 3.74ZM11 21a3 3 0 0 1-3-3 2.89 2.89 0 0 1 0-.43V17h-.5a5.5 5.5 0 1 1 4.57-2.44l-.32.44.53.25A3 3 0 0 1 11 21Zm4-3a4 4 0 0 0-1.82-3.35A6.48 6.48 0 0 0 13 8h6a6.48 6.48 0 0 0-.22 6.65A4 4 0 0 0 17 18h-2Zm3 0a3 3 0 0 1 1.73-2.71l.52-.29-.32-.48A5.5 5.5 0 1 1 24.52 17h-.64l.12.57a2.89 2.89 0 0 1 0 .43 3 3 0 0 1-6 0Zm10.88 8.91a3 3 0 0 1-3.77-2.06c-.41-1.17-1.11-2.72-1.61-3.74A4 4 0 0 0 25 18a6.51 6.51 0 0 0 5.38-3.73 79 79 0 0 1 .62 9.26c0 1.34-.37 3.01-2.12 3.38Z" fill="#4493c4" class="fill-000000"></path><path d="M9 13h2v-3H9V8H6v2H4v3h2v2h3v-2Zm-1 1H7v-2H5v-1h2V9h1v2h2v1H8v2ZM24.5 10A1.5 1.5 0 1 0 23 8.5a1.5 1.5 0 0 0 1.5 1.5Zm0-2a.5.5 0 1 1-.5.5.5.5 0 0 1 .5-.5ZM24.5 16a1.5 1.5 0 1 0-1.5-1.5 1.5 1.5 0 0 0 1.5 1.5Zm0-2a.5.5 0 1 1-.5.5.5.5 0 0 1 .5-.5ZM21.5 13a1.5 1.5 0 1 0-1.5-1.5 1.5 1.5 0 0 0 1.5 1.5Zm0-2a.5.5 0 1 1-.5.5.5.5 0 0 1 .5-.5ZM27.5 13a1.5 1.5 0 1 0-1.5-1.5 1.5 1.5 0 0 0 1.5 1.5Zm0-2a.5.5 0 1 1-.5.5.5.5 0 0 1 .5-.5ZM11 16a2 2 0 1 0 2 2 2 2 0 0 0-2-2Zm0 3a1 1 0 1 1 1-1 1 1 0 0 1-1 1ZM21 16a2 2 0 1 0 2 2 2 2 0 0 0-2-2Zm0 3a1 1 0 1 1 1-1 1 1 0 0 1-1 1Z" fill="#4493c4" class="fill-000000"></path></svg>